<?xml version="1.0" standalone="no"?>
<!DOCTYPE svg PUBLIC "-//W3C//DTD SVG 1.1//EN" "http://www.w3.org/Graphics/SVG/1.1/DTD/svg11.dtd">
<svg xmlns="http://www.w3.org/2000/svg" width="583" height="155" viewBox="0 0 583 155" fill="none">
<path d="M65.8369 78.816C78.3129 119.624 54.5463 153.201 54.5463 153.201C54.5463 153.201 15.9889 138.397 3.59027 97.8467C-8.80706 57.2947 14.8809 23.4614 14.8809 23.4614C14.8809 23.4614 53.3609 38.008 65.8369 78.816Z" fill="black"/>
<path d="M96.0844 90.5783C118.099 61.6276 155.198 62.8943 155.198 62.8943C155.198 62.8943 166.195 98.4863 144.318 127.256C122.44 156.025 85.2044 154.94 85.2044 154.94C85.2044 154.94 74.0698 119.53 96.0844 90.5783Z" fill="black"/>
<path d="M99.5418 3.6988C131.444 14.3721 142.855 42.7868 142.855 42.7868C142.855 42.7868 116.442 58.5455 84.7391 47.9388C53.0378 37.3308 41.4258 8.84947 41.4258 8.84947C41.4258 8.84947 67.6391 -6.97586 99.5418 3.6988Z" fill="black"/>
<path d="M582.729 41.5498H564.749V113.563H582.729V41.5498ZM533.127 113.563H550.432L548.563 41.5498H524.433L517.881 67.3644C515.625 75.3898 513.208 89.9404 513.469 91.2084H512.52C512.78 89.9404 510.329 75.3898 508.075 67.3644L501.521 41.5498H477.393L475.525 113.563H492.828C492.828 113.563 492.987 73.6818 492.908 63.8711L493.215 63.8591C495.228 73.4924 497.548 80.6445 499.784 88.1218L507.235 113.563H519.416L526.171 88.1218C528.408 80.6445 530.727 73.4924 532.741 63.8591L533.046 63.8711C532.968 73.6818 533.127 113.563 533.127 113.563ZM415.352 113.563H460.2V98.5458H433.332V83.6351H457.339V68.9244H433.332V56.5671H458.667V41.5498H415.352V113.563ZM344.365 113.563H398.1V98.3418H367.8V97.9324L397.793 53.0938V41.5498H347.225V56.7711H375.38V57.1804L344.365 103.552V113.563ZM323.412 113.563H330.199L302.531 41.3818H295.848L268.18 113.563H274.757L284.051 89.9564H314.015L323.412 113.563ZM312.345 84.7338H285.72L294.093 62.2764C295.765 57.2618 297.832 52.6644 298.876 47.9631H299.189C300.337 52.5604 302.301 57.1578 304.076 62.6938L312.345 84.7338ZM244.432 113.563H250.592V41.3818H244.328V75.7484C244.328 88.2858 244.431 93.8018 245.267 104.683L245.059 104.788C240.081 96.6418 236.705 92.8818 230.545 83.0618L201.624 41.3818H195.256V113.563H201.416V78.6738C201.416 65.0924 201.311 59.9778 200.685 50.0538L200.999 49.9484C205.785 58.0564 210.291 63.2124 215.928 72.3018L244.432 113.563Z" fill="black"/>
</svg>